 <svg width="24" height="24" viewBox="0 0 24 24" fill="none" xmlns="http://www.w3.org/2000/svg">
<rect width="24" height="24" rx="3" fill="white"/>
<path d="M15.6672 4.5746L13.6813 4.57141C11.4501 4.57141 10.0083 6.05072 10.0083 8.34034V10.0781H8.01149C7.83894 10.0781 7.69922 10.218 7.69922 10.3905V12.9083C7.69922 13.0808 7.8391 13.2205 8.01149 13.2205H10.0083V19.5737C10.0083 19.7462 10.148 19.886 10.3205 19.886H12.9258C13.0983 19.886 13.2381 19.7461 13.2381 19.5737V13.2205H15.5728C15.7453 13.2205 15.885 13.0808 15.885 12.9083L15.886 10.3905C15.886 10.3077 15.853 10.2283 15.7945 10.1697C15.7361 10.111 15.6564 10.0781 15.5736 10.0781H13.2381V8.60498C13.2381 7.89695 13.4068 7.53752 14.3291 7.53752L15.6669 7.53704C15.8393 7.53704 15.979 7.39715 15.979 7.22477V4.88687C15.979 4.71464 15.8395 4.57492 15.6672 4.5746Z" fill="#B31E8D"/>
</svg>
