<svg width="22" height="24" viewBox="0 0 22 24" fill="none" xmlns="http://www.w3.org/2000/svg">
<path d="M17.7387 17.5552H16.419L16.4251 16.7901C16.4251 16.4501 16.7049 16.172 17.0466 16.172H17.1308C17.4734 16.172 17.754 16.4501 17.754 16.7901L17.7387 17.5552ZM12.7883 15.9157C12.4535 15.9157 12.1796 16.1403 12.1796 16.4152V20.136C12.1796 20.4104 12.4535 20.6344 12.7883 20.6344C13.1245 20.6344 13.3986 20.4104 13.3986 20.136V16.4152C13.3986 16.14 13.1245 15.9157 12.7883 15.9157ZM22 13.8344V20.9128C22 22.6107 20.5247 24 18.7213 24H3.279C1.47503 24 0 22.6107 0 20.9128V13.8344C0 12.1365 1.47503 10.7469 3.279 10.7469H18.7213C20.5247 10.7469 22 12.1365 22 13.8344ZM4.9653 21.6813L4.96423 14.2251L6.63567 14.2256V13.1208L2.18011 13.1141V14.2003L3.57097 14.2043V21.6813H4.9653ZM9.97559 15.3357H8.58206V19.3173C8.58206 19.8933 8.61707 20.1813 8.57993 20.2829C8.46663 20.5917 7.95731 20.9197 7.75877 20.3163C7.7251 20.2107 7.75477 19.892 7.75423 19.3448L7.74862 15.3357H6.36284L6.36711 19.2819C6.36818 19.8867 6.35349 20.3376 6.37192 20.5429C6.40586 20.9048 6.39384 21.3267 6.73026 21.5677C7.35715 22.0184 8.55882 21.5005 8.85943 20.8563L8.85676 21.6784L9.97586 21.6797L9.97559 15.3357ZM14.4335 19.8952L14.4306 16.5813C14.4295 15.3184 13.4828 14.5621 12.1978 15.584L12.2034 13.1203L10.8114 13.1224L10.8048 21.6264L11.9495 21.6099L12.0537 21.0803C13.5162 22.4192 14.4357 21.5016 14.4335 19.8952ZM18.7948 19.456L17.75 19.4616C17.7494 19.5029 17.7478 19.5507 17.7473 19.6027V20.1845C17.7473 20.496 17.4894 20.7496 17.1762 20.7496H16.9716C16.6579 20.7496 16.4 20.496 16.4 20.1845V20.12V19.48V18.6541H18.7926V17.7555C18.7926 17.0987 18.7758 16.4421 18.7213 16.0667C18.55 14.8789 16.8794 14.6904 16.0355 15.2984C15.7707 15.4883 15.5684 15.7424 15.4508 16.0837C15.3322 16.4253 15.2731 16.892 15.2731 17.4848V19.4608C15.2737 22.7456 19.2718 22.2813 18.7948 19.456ZM13.435 8.72853C13.5068 8.90293 13.6185 9.04427 13.7701 9.15093C13.9197 9.256 14.111 9.3088 14.3403 9.3088C14.5412 9.3088 14.7192 9.25467 14.8742 9.14293C15.0286 9.03173 15.1588 8.8656 15.2651 8.644L15.2387 9.1896H16.792V2.59733H15.5692V7.728C15.5692 8.00587 15.3399 8.23333 15.0596 8.23333C14.7809 8.23333 14.5509 8.00587 14.5509 7.728V2.59733H13.2746V7.04373C13.2746 7.61013 13.2851 7.98773 13.3019 8.1792C13.3193 8.36933 13.3631 8.55173 13.435 8.72853ZM8.7277 5.00533C8.7277 4.37253 8.7806 3.8784 8.88562 3.52213C8.99144 3.1672 9.18143 2.88187 9.45666 2.66667C9.73109 2.4504 10.0825 2.34213 10.5098 2.34213C10.8692 2.34213 11.177 2.41253 11.4341 2.5504C11.6925 2.68907 11.8918 2.86907 12.0299 3.0912C12.1708 3.31413 12.2664 3.5432 12.3175 3.7776C12.3696 4.0152 12.3952 4.3736 12.3952 4.85707V6.52427C12.3952 7.13573 12.3706 7.5856 12.3228 7.8712C12.2755 8.1576 12.174 8.4232 12.0166 8.67227C11.8616 8.91867 11.6615 9.10293 11.4188 9.22053C11.1735 9.3392 10.8929 9.39733 10.576 9.39733C10.222 9.39733 9.92375 9.34853 9.67791 9.24667C9.43127 9.14533 9.24075 8.99253 9.10501 8.7896C8.96792 8.5864 8.87146 8.33893 8.8132 8.0504C8.75468 7.76213 8.7269 7.32853 8.7269 6.75067L8.7277 5.00533ZM9.94433 7.624C9.94433 7.99733 10.2228 8.30213 10.5619 8.30213C10.9012 8.30213 11.1786 7.99733 11.1786 7.624V4.11467C11.1786 3.74187 10.9012 3.43707 10.5619 3.43707C10.2228 3.43707 9.94433 3.74187 9.94433 4.11467V7.624ZM5.64536 9.396H7.11078L7.11238 4.34L8.84393 0.0088H7.24118L6.32062 3.22587L5.38697 0H3.80078L5.64296 4.3424L5.64536 9.396Z" fill="white"/>
</svg>
