<svg id="Layer_1" xmlns="http://www.w3.org/2000/svg" xmlns:xlink="http://www.w3.org/1999/xlink" viewBox="0 0 202.6 57.6"><style>.st0{fill:#b31e8d}.st1{clip-path:url(#SVGID_2_);fill:url(#SVGID_3_)}.st2{enable-background:new}.st3{fill:#b63281}</style><path class="st0" d="M71.1 5.4h17.1V1.1H61.4L33.6 37.5H39L66.3 1.8v35.7h22.3v-4.2H71.1zM157.3 1.1V29L137.1 1.1h-3.6v36.4h4.5V9.7l20.2 27.8h3.6V1.1zM110.1.3C99 .3 90.4 8.7 90.4 19.4s8.6 19.1 19.7 19.1 19.8-8.4 19.8-19.1c0-10.8-8.7-19.1-19.8-19.1m.1 33.9c-8.3 0-15-6.7-15-14.9s6.7-14.9 15-14.9 15 6.7 15 14.9-6.8 14.9-15 14.9"/><defs><path id="SVGID_1_" d="M86.8 13.2c-17.7 0-27.2 2.6-27.2 6.1 0 3.3 11.2 6.1 25 6.1s25-2.7 25-6.1c0-1.9-2.9-4.4-12.2-5.3 0 0-.7-.1-.7.3-.1.4.8.5.8.5 7 .6 8.5 2.4 8.3 3.3-.4 2.2-9.5 4-21.2 4s-21.2-1.8-21.2-4S74.3 14 86.7 14c0 0 .9 0 .9-.3 0-.5-.6-.5-.8-.5"/></defs><clipPath id="SVGID_2_"><use xlink:href="#SVGID_1_" overflow="visible"/></clipPath><linearGradient id="SVGID_3_" gradientUnits="userSpaceOnUse" x1="-1169.889" y1="42.483" x2="-1168.07" y2="42.483" gradientTransform="rotate(-90 -3205.709 -3061.808) scale(5.3786)"><stop offset="0" stop-color="#fff"/><stop offset=".068" stop-color="#f3e1ef"/><stop offset=".203" stop-color="#dfacd2"/><stop offset=".34" stop-color="#cd7eb9"/><stop offset=".475" stop-color="#be58a4"/><stop offset=".61" stop-color="#b33b94"/><stop offset=".743" stop-color="#aa2789"/><stop offset=".874" stop-color="#a61a82"/><stop offset="1" stop-color="#a41680"/></linearGradient><path class="st1" d="M59.6 13.2h50v12.2h-50z"/><path class="st0" d="M66.3 9.3h4.8v8.9h-4.8z"/><g class="st2"><path class="st3" d="M2.7 47.1H.2v-.9h6.2v.9H3.8v7.5H2.7v-7.5zM9.4 47.1H6.8v-.9H13v.9h-2.6v7.5h-1v-7.5zM14 46.3c.5-.1 1.2-.2 2-.2 1.1 0 1.8.2 2.3.6.4.3.7.8.7 1.5 0 .8-.5 1.5-1.4 1.8.8.2 1.7.9 1.7 2.1 0 .7-.3 1.3-.7 1.7-.6.5-1.5.8-2.9.8-.7 0-1.3 0-1.7-.1v-8.2zm1.1 3.4h1c1.1 0 1.8-.6 1.8-1.4 0-1-.7-1.4-1.8-1.4-.5 0-.8 0-1 .1v2.7zm0 4c.2 0 .5.1.9.1 1.1 0 2.2-.4 2.2-1.6 0-1.1-1-1.6-2.2-1.6h-.9v3.1zM21.9 46.1v3.5H26v-3.5h1v8.4h-1.1v-3.9h-4.1v3.9h-1.1v-8.4h1.2zM30.5 47.1H28v-.9h6.2v.9h-2.6v7.5h-1.1v-7.5zM36.2 46.1v3.5h4.1v-3.5h1.1v8.4h-1.1v-3.9h-4.1v3.9h-1.1v-8.4h1.1zM47.3 54.6l-2.7-8.4h1.2l1.3 4.1c.4 1.1.7 2.2.9 3.1.2-1 .6-2 1-3.1l1.4-4.2h1.2l-3 8.4h-1.3zM53.1 51.9l-.9 2.6h-1.1l2.9-8.4h1.3l2.9 8.4H57l-.9-2.6h-3zm1-7.7l1.1 1.4h-.9l-1.6-1.4h1.4zm1.8 6.9l-.9-2.5c-.2-.5-.3-1-.4-1.5-.1.5-.3 1-.4 1.5l-.8 2.4h2.5zM61.9 53.2c.5.3 1.2.5 1.9.5 1.1 0 1.8-.6 1.8-1.4 0-.8-.4-1.2-1.6-1.7-1.4-.5-2.2-1.2-2.2-2.4 0-1.3 1.1-2.3 2.7-2.3.9 0 1.5.2 1.9.4l-.3.9c-.3-.2-.8-.4-1.6-.4-1.1 0-1.6.7-1.6 1.3 0 .8.5 1.2 1.7 1.6 1.4.5 2.1 1.2 2.1 2.5s-1 2.4-2.9 2.4c-.8 0-1.7-.2-2.1-.5l.2-.9zM69.3 46.1v8.4h-1.1v-8.4h1.1zM75.5 50.6h-3.3v3h3.6v.9h-4.7v-8.4h4.5v.9h-3.5v2.7h3.3v.9zm-1.7-6.3l1.3 1.4h-.9l-.8-.9-.8.9h-.9l1.3-1.4h.8zM78.4 46.1v5c0 1.9.8 2.7 2 2.7s2-.8 2-2.7v-5h1.1V51c0 2.6-1.4 3.6-3.2 3.6-1.7 0-3-1-3-3.6v-5h1.1zM89.1 47.1h-2.6v-.9h6.2v.9h-2.6v7.5H89v-7.5zM94.8 46.1v3.5h4.1v-3.5h1.1v8.4h-1.1v-3.9h-4.1v3.9h-1.1v-8.4h1.1zM101.8 56.2c0-.3.3-.6.6-.6s.6.3.6.6-.2.6-.6.6c-.3 0-.6-.3-.6-.6zm1.2-10.1v8.4h-1.1v-8.4h1.1zM106.5 49.9h1v-3.6c.7-.1 1.4-.2 2.3-.2 1.5 0 2.7.4 3.4 1 .7.7 1.2 1.7 1.2 3.1 0 1.4-.4 2.5-1.2 3.3s-2.1 1.2-3.7 1.2c-.8 0-1.4 0-2-.1v-3.8h-1v-.9zm4.4.8h-2.2v3h1.1c2.3 0 3.6-1.3 3.6-3.6 0-2-1.1-3.2-3.4-3.2-.6 0-1 0-1.3.1v2.8h2.2v.9zM120.3 50.6H117v3h3.6v.9h-4.7v-8.4h4.5v.9H117v2.7h3.3v.9zm-1.7-6.3l1.2 1.4h-.9l-.7-.9-.7.9h-.8l1.1-1.4h.8zm2.8-1l-1.5 1.3h-.6l1-1.3h1.1zM122 54.6v-8.4h1.2l2.7 4.3c.6 1 1.1 1.9 1.5 2.7-.1-1.1-.1-2.1-.1-3.5v-3.5h1v8.4h-1.1l-2.7-4.3c-.6-.9-1.1-1.9-1.6-2.8.1 1.1.1 2.1.1 3.5v3.6h-1zM134 47.1h-2.6v-.9h6.2v.9H135v7.5h-1v-7.5zM145.9 44.8c.1.3.2.6.2.9 0 .6-.4 1-1.1 1.1h-.2V51c0 2.6-1.4 3.6-3.2 3.6-1.7 0-3-1-3-3.6v-5h1.1v5c0 1.9.8 2.7 2 2.7s2-.8 2-2.7v-5h1c.4 0 .6-.2.6-.5 0-.2-.1-.5-.2-.7h.8zm-4.6-.6l1.1 1.4h-.9l-1.6-1.4h1.4zM149.7 54.6v-8.4h1.2l2.7 4.3c.6 1 1.1 1.9 1.5 2.7-.1-1.2-.1-2.2-.1-3.5v-3.5h1v8.4h-1.1l-2.7-4.3c-.6-.9-1.1-1.9-1.6-2.8.1 1.1.1 2.1.1 3.5v3.6h-1zM159 46.1v3.5h4.1v-3.5h1.1v8.4h-1.1v-3.9H159v3.9h-1.1v-8.4h1.1zM167.4 51.9l-.9 2.6h-1.1l2.9-8.4h1.3l2.9 8.4h-1.2l-.9-2.6h-3zm2-7.6l1.3 1.4h-.9l-.8-.9-.8.9h-.9l1.3-1.4h.8zm.8 6.8l-.8-2.4c-.2-.5-.3-1-.4-1.5-.1.5-.3 1-.4 1.5l-.8 2.4h2.4zm-1.9 5.1c0-.3.3-.6.6-.6s.6.3.6.6-.3.6-.6.6-.6-.3-.6-.6zM174.4 47.1h-2.6v-.9h6.2v.9h-2.6v7.5h-1.1v-7.5zM181.6 46.3c.5-.1 1.2-.2 2-.2 1.1 0 1.8.2 2.3.6.4.3.7.8.7 1.5 0 .8-.5 1.5-1.4 1.8.8.2 1.7.9 1.7 2.1 0 .7-.3 1.3-.7 1.7-.6.5-1.5.8-2.9.8-.8 0-1.3 0-1.7-.1v-8.2zm1.1 3.4h1c1.1 0 1.8-.6 1.8-1.4 0-1-.8-1.4-1.8-1.4-.5 0-.8 0-1 .1v2.7zm0 4c.2 0 .5.1.9.1 1.1 0 2.2-.4 2.2-1.6 0-1.1-1-1.6-2.2-1.6h-.9v3.1zM189.7 51.9l-.9 2.6h-1.1l2.9-8.4h1.3l2.9 8.4h-1.2l-.9-2.6h-3zm2.8-.8l-.8-2.4c-.2-.5-.3-1-.4-1.5-.1.5-.3 1-.4 1.5l-.8 2.4h2.4zm-1.5-5.6c.2-.5.7-.6.7-1 0-.2-.2-.4-.4-.4-.3 0-.5.2-.6.4l-.4-.2c.2-.5.6-.8 1.2-.8s1 .4 1 .9c0 .6-.6.8-.9 1.3l-.6-.2zM196 54.6v-8.4h1.2l2.7 4.3c.6 1 1.1 1.9 1.5 2.7-.1-1.1-.1-2.1-.1-3.5v-3.5h1v8.4h-1.1l-2.7-4.3c-.6-.9-1.1-1.9-1.6-2.8.1 1.1.1 2.1.1 3.5v3.6h-1z"/></g></svg>