<svg width="24" height="24" viewBox="0 0 24 24" fill="none" xmlns="http://www.w3.org/2000/svg">
<path d="M17.5153 0H6.48473C2.90906 0 0 2.90906 0 6.48473V17.5153C0 21.0909 2.90906 24 6.48473 24H17.5153C21.0909 24 24 21.0909 24 17.5153V6.48473C24 2.90906 21.0909 0 17.5153 0ZM22.0611 17.5153C22.0611 20.0218 20.0219 22.0611 17.5153 22.0611H6.48473C3.97819 22.0611 1.93894 20.0219 1.93894 17.5153V6.48473C1.93894 3.97819 3.97814 1.93894 6.48473 1.93894H17.5153C20.0218 1.93894 22.0611 3.97814 22.0611 6.48473V17.5153Z" fill="white"/>
<path d="M17.3714 11.163C17.2007 10.0124 16.6758 8.96949 15.8533 8.14698C15.0307 7.32451 13.9879 6.79951 12.8373 6.62893C12.3134 6.55126 11.7823 6.55126 11.2584 6.62893C9.83644 6.83982 8.58173 7.59179 7.72537 8.74637C6.86901 9.90095 6.51347 11.3199 6.72436 12.7419C6.93525 14.1638 7.68722 15.4185 8.84179 16.2749C9.77911 16.9701 10.8905 17.3352 12.0365 17.3352C12.3021 17.3352 12.5697 17.3156 12.8372 17.2759C14.2592 17.065 15.5139 16.313 16.3703 15.1584C17.2267 14.0039 17.5822 12.585 17.3714 11.163ZM12.5528 15.3579C11.6432 15.493 10.7355 15.2654 9.99689 14.7176C9.25828 14.1698 8.77725 13.3671 8.64239 12.4575C8.50748 11.5479 8.73487 10.6401 9.2827 9.90151C9.83058 9.1629 10.6332 8.68187 11.5429 8.54696C11.7104 8.52212 11.8791 8.5097 12.0478 8.5097C12.2165 8.5097 12.3853 8.52212 12.5528 8.54701C14.0636 8.77103 15.2293 9.93662 15.4533 11.4475C15.7318 13.3252 14.4307 15.0795 12.5528 15.3579Z" fill="white"/>
<path d="M18.7527 5.24771C18.5722 5.0672 18.3223 4.96375 18.0672 4.96375C17.8121 4.96375 17.5622 5.06715 17.3816 5.24771C17.2011 5.42828 17.0977 5.67775 17.0977 5.93326C17.0977 6.18878 17.2011 6.43825 17.3816 6.61881C17.5622 6.79932 17.8121 6.90278 18.0672 6.90278C18.3223 6.90278 18.5722 6.79937 18.7527 6.61881C18.9332 6.43825 19.0367 6.18835 19.0367 5.93326C19.0367 5.67812 18.9332 5.42823 18.7527 5.24771Z" fill="white"/>
</svg>
