<svg xmlns="http://www.w3.org/2000/svg" viewBox="0 0 24.98 24.36" width="24" height="24"><defs><style>.cls-1{fill:#fff;}</style></defs><g id="Layer_2" data-name="Layer 2"><g id="Capa_1" data-name="Capa 1"><path class="cls-1" d="M23.18,0H1.8A1.78,1.78,0,0,0,0,1.76V22.61a1.78,1.78,0,0,0,1.8,1.75H23.18A1.78,1.78,0,0,0,25,22.61V1.76A1.78,1.78,0,0,0,23.18,0ZM18.75,9.32V11a6,6,0,0,1-2.3-.45,5.82,5.82,0,0,1-1.31-.74v5.07a4.16,4.16,0,0,1-1.3,3,4.5,4.5,0,0,1-2.49,1.21,4.91,4.91,0,0,1-.67.05A4.56,4.56,0,0,1,8,18.23a3.62,3.62,0,0,1-.42-.36A4.19,4.19,0,0,1,7.34,12a4.52,4.52,0,0,1,3.35-1.46,4.91,4.91,0,0,1,.67.05v2.3a2,2,0,0,0-.66-.1,2.07,2.07,0,0,0-2.11,2.08,2,2,0,0,0,1,1.73,2.08,2.08,0,0,0,1,.29,2.2,2.2,0,0,0,.78-.1,2.06,2.06,0,0,0,1.45-2V5.24h2.33a2.81,2.81,0,0,0,.07.65A3.49,3.49,0,0,0,16.57,8a3.7,3.7,0,0,0,2.17.7h0v.61Z"/></g></g></svg>