  <svg width="24" height="24" viewBox="0 0 24 24" fill="none" xmlns="http://www.w3.org/2000/svg">
<rect width="24" height="24" rx="3" fill="white"/>
<path d="M4.45683 14.2818C5.42082 14.2818 6.32724 14.2752 7.22743 14.2818C7.73175 14.2884 8.00623 14.5061 8.05735 14.9219C8.11481 15.4431 7.82117 15.7928 7.27219 15.7995C6.23805 15.8127 5.21026 15.806 4.176 15.806C3.87602 15.806 3.58226 15.8193 3.28227 15.7995C2.91202 15.7797 2.54812 15.7005 2.3694 15.3046C2.19068 14.9086 2.31828 14.5524 2.56093 14.229C3.54407 12.9357 4.53356 11.6358 5.52305 10.3425C5.58051 10.2633 5.63797 10.1841 5.69543 10.1114C5.63162 9.99922 5.5422 10.0521 5.46559 10.0455C4.77609 10.0389 4.08035 10.0455 3.39085 10.0389C3.23128 10.0389 3.07171 10.0191 2.91849 9.98611C2.55458 9.90036 2.33121 9.52422 2.41417 9.15476C2.47162 8.90395 2.66315 8.69943 2.90568 8.64004C3.0589 8.60044 3.21847 8.58064 3.37804 8.58064C4.51441 8.57409 5.657 8.57409 6.79337 8.58064C6.99771 8.57409 7.19558 8.60044 7.39346 8.65327C7.82751 8.80509 8.0127 9.22071 7.84032 9.65624C7.6871 10.0324 7.44457 10.3557 7.20193 10.679C6.36566 11.7809 5.52939 12.8763 4.69313 13.9651C4.62286 14.0508 4.55906 14.1367 4.45683 14.2818Z" fill="#B31E8D"/>
<path d="M11.8621 10.811C12.0153 10.6065 12.1749 10.4151 12.4367 10.3624C12.941 10.2568 13.4134 10.5934 13.4198 11.1212C13.439 12.4409 13.4326 13.7606 13.4198 15.0802C13.4198 15.4233 13.2028 15.7269 12.89 15.8258C12.5709 15.9512 12.207 15.8522 11.9963 15.5685C11.8877 15.4299 11.843 15.4035 11.6898 15.5289C11.1089 16.0171 10.4513 16.103 9.7428 15.8654C8.60632 15.4827 8.1403 14.5655 8.01269 13.4503C7.87862 12.2428 8.26803 11.2135 9.31498 10.58C10.1831 10.0456 11.0641 10.0918 11.8621 10.811ZM9.60215 13.2194C9.61496 13.5097 9.70426 13.7869 9.87029 14.0179C10.215 14.493 10.8726 14.592 11.3386 14.2357C11.4152 14.1763 11.4855 14.1036 11.5493 14.0179C11.9067 13.5164 11.9067 12.6916 11.5493 12.1901C11.3706 11.9328 11.0896 11.7811 10.7896 11.7744C10.0873 11.7282 9.59581 12.2891 9.60215 13.2194ZM16.2861 13.259C16.2349 11.5632 17.3139 10.2963 18.846 10.2501C20.4738 10.1973 21.6612 11.3257 21.7123 12.9753C21.7634 14.6447 20.7739 15.8258 19.2482 15.9842C17.582 16.1557 16.2604 14.9086 16.2861 13.259ZM17.8883 13.1007C17.8755 13.4305 17.9713 13.754 18.1628 14.0244C18.5139 14.4996 19.1714 14.5919 19.6311 14.2224C19.7014 14.1696 19.7588 14.1036 19.8163 14.0377C20.1866 13.5362 20.1866 12.6916 19.8226 12.1901C19.6439 11.9394 19.363 11.7811 19.063 11.7744C18.3735 11.7348 17.8883 12.2759 17.8883 13.1007ZM15.7243 11.9459C15.7243 12.9686 15.7306 13.9914 15.7243 15.0142C15.7306 15.4826 15.3732 15.872 14.92 15.8851C14.8434 15.8851 14.7604 15.8786 14.6838 15.8588C14.3647 15.773 14.122 15.4232 14.122 15.0076V9.7619C14.122 9.45183 14.1157 9.1482 14.122 8.83813C14.1284 8.33009 14.4411 8.0001 14.9136 8.0001C15.3988 7.99354 15.7244 8.32341 15.7244 8.85124C15.7306 9.88068 15.7243 10.9166 15.7243 11.9459Z" fill="#B31E8D"/>
</svg>
